<svg width="744" height="99" viewBox="0 0 744 99" fill="none" xmlns="http://www.w3.org/2000/svg">
<path d="M383 38.5C383 46.445 378.047 54.3121 368.423 61.6524C358.799 68.9925 344.693 75.662 326.911 81.28C309.129 86.8979 288.018 91.3543 264.784 94.3947C241.55 97.4351 216.648 99 191.5 99C166.352 99 141.45 97.4351 118.216 94.3947C94.9823 91.3543 73.8715 86.8979 56.089 81.28C38.3066 75.662 24.2008 68.9925 14.5771 61.6523C4.95329 54.3121 -2.19852e-06 46.445 0 38.5L191.5 38.5H383Z" fill="#84E1FF"/>
<path d="M447.84 40.528C450.528 40.528 452.896 40.208 454.944 39.568C457.024 38.896 458.752 37.968 460.128 36.784C461.536 35.568 462.592 34.128 463.296 32.464C464 30.8 464.352 28.96 464.352 26.944C464.352 22.848 463.008 19.76 460.32 17.68C457.632 15.6 453.6 14.56 448.224 14.56H438.048V40.528H447.84ZM479.616 76H471.36C469.664 76 468.416 75.344 467.616 74.032L449.76 49.456C449.216 48.688 448.624 48.144 447.984 47.824C447.376 47.472 446.416 47.296 445.104 47.296H438.048V76H428.784V7.216H448.224C452.576 7.216 456.336 7.664 459.504 8.56C462.672 9.424 465.28 10.688 467.328 12.352C469.408 14.016 470.944 16.032 471.936 18.4C472.928 20.736 473.424 23.36 473.424 26.272C473.424 28.704 473.04 30.976 472.272 33.088C471.504 35.2 470.384 37.104 468.912 38.8C467.472 40.464 465.696 41.888 463.584 43.072C461.504 44.256 459.136 45.152 456.48 45.76C457.664 46.432 458.688 47.408 459.552 48.688L479.616 76ZM504.358 26.608C507.91 26.608 511.11 27.2 513.958 28.384C516.806 29.568 519.238 31.248 521.254 33.424C523.27 35.6 524.806 38.24 525.862 41.344C526.95 44.416 527.494 47.856 527.494 51.664C527.494 55.504 526.95 58.96 525.862 62.032C524.806 65.104 523.27 67.728 521.254 69.904C519.238 72.08 516.806 73.76 513.958 74.944C511.11 76.096 507.91 76.672 504.358 76.672C500.774 76.672 497.542 76.096 494.662 74.944C491.814 73.76 489.382 72.08 487.366 69.904C485.35 67.728 483.798 65.104 482.71 62.032C481.654 58.96 481.126 55.504 481.126 51.664C481.126 47.856 481.654 44.416 482.71 41.344C483.798 38.24 485.35 35.6 487.366 33.424C489.382 31.248 491.814 29.568 494.662 28.384C497.542 27.2 500.774 26.608 504.358 26.608ZM504.358 70C509.158 70 512.742 68.4 515.11 65.2C517.478 61.968 518.662 57.472 518.662 51.712C518.662 45.92 517.478 41.408 515.11 38.176C512.742 34.944 509.158 33.328 504.358 33.328C501.926 33.328 499.798 33.744 497.974 34.576C496.182 35.408 494.678 36.608 493.462 38.176C492.278 39.744 491.382 41.68 490.774 43.984C490.198 46.256 489.91 48.832 489.91 51.712C489.91 57.472 491.094 61.968 493.462 65.2C495.862 68.4 499.494 70 504.358 70ZM564.683 54.112C560.747 54.24 557.387 54.56 554.603 55.072C551.851 55.552 549.595 56.192 547.835 56.992C546.107 57.792 544.843 58.736 544.043 59.824C543.275 60.912 542.891 62.128 542.891 63.472C542.891 64.752 543.099 65.856 543.515 66.784C543.931 67.712 544.491 68.48 545.195 69.088C545.931 69.664 546.779 70.096 547.739 70.384C548.731 70.64 549.787 70.768 550.907 70.768C552.411 70.768 553.787 70.624 555.035 70.336C556.283 70.016 557.451 69.568 558.539 68.992C559.659 68.416 560.715 67.728 561.707 66.928C562.731 66.128 563.723 65.216 564.683 64.192V54.112ZM537.083 34.24C539.771 31.648 542.667 29.712 545.771 28.432C548.875 27.152 552.315 26.512 556.091 26.512C558.811 26.512 561.227 26.96 563.339 27.856C565.451 28.752 567.227 30 568.667 31.6C570.107 33.2 571.195 35.136 571.931 37.408C572.667 39.68 573.035 42.176 573.035 44.896V76H569.243C568.411 76 567.771 75.872 567.323 75.616C566.875 75.328 566.523 74.784 566.267 73.984L565.307 69.376C564.027 70.56 562.779 71.616 561.562 72.544C560.347 73.44 559.067 74.208 557.723 74.848C556.379 75.456 554.939 75.92 553.403 76.24C551.899 76.592 550.219 76.768 548.363 76.768C546.475 76.768 544.699 76.512 543.035 76C541.371 75.456 539.915 74.656 538.667 73.6C537.451 72.544 536.475 71.216 535.739 69.616C535.035 67.984 534.683 66.064 534.683 63.856C534.683 61.936 535.211 60.096 536.267 58.336C537.323 56.544 539.035 54.96 541.403 53.584C543.771 52.208 546.859 51.088 550.667 50.224C554.475 49.328 559.147 48.816 564.683 48.688V44.896C564.683 41.12 563.867 38.272 562.235 36.352C560.603 34.4 558.219 33.424 555.083 33.424C552.971 33.424 551.195 33.696 549.755 34.24C548.347 34.752 547.115 35.344 546.059 36.016C545.035 36.656 544.139 37.248 543.371 37.792C542.635 38.304 541.899 38.56 541.163 38.56C540.587 38.56 540.091 38.416 539.675 38.128C539.259 37.808 538.907 37.424 538.618 36.976L537.083 34.24ZM586.049 76V27.376H591.185C592.401 27.376 593.153 27.968 593.441 29.152L594.065 34.144C595.857 31.936 597.873 30.128 600.113 28.72C602.353 27.312 604.945 26.608 607.889 26.608C611.153 26.608 613.793 27.52 615.809 29.344C617.857 31.168 619.329 33.632 620.225 36.736C620.929 34.976 621.825 33.456 622.913 32.176C624.033 30.896 625.281 29.84 626.657 29.008C628.033 28.176 629.489 27.568 631.025 27.184C632.593 26.8 634.177 26.608 635.777 26.608C638.337 26.608 640.609 27.024 642.593 27.856C644.609 28.656 646.305 29.84 647.681 31.408C649.089 32.976 650.161 34.912 650.897 37.216C651.633 39.488 652.001 42.096 652.001 45.04V76H643.409V45.04C643.409 41.232 642.577 38.352 640.913 36.4C639.249 34.416 636.849 33.424 633.713 33.424C632.305 33.424 630.961 33.68 629.681 34.192C628.433 34.672 627.329 35.392 626.369 36.352C625.409 37.312 624.641 38.528 624.065 40C623.521 41.44 623.249 43.12 623.249 45.04V76H614.657V45.04C614.657 41.136 613.873 38.224 612.305 36.304C610.737 34.384 608.449 33.424 605.441 33.424C603.329 33.424 601.377 34 599.585 35.152C597.793 36.272 596.145 37.808 594.641 39.76V76H586.049ZM697.531 46.384C697.531 44.4 697.243 42.592 696.667 40.96C696.123 39.296 695.307 37.872 694.219 36.688C693.163 35.472 691.867 34.544 690.331 33.904C688.795 33.232 687.051 32.896 685.099 32.896C681.003 32.896 677.755 34.096 675.355 36.496C672.987 38.864 671.515 42.16 670.939 46.384H697.531ZM704.443 69.184C703.387 70.464 702.123 71.584 700.651 72.544C699.179 73.472 697.595 74.24 695.899 74.848C694.235 75.456 692.507 75.904 690.715 76.192C688.923 76.512 687.147 76.672 685.387 76.672C682.027 76.672 678.923 76.112 676.075 74.992C673.259 73.84 670.811 72.176 668.731 70C666.683 67.792 665.083 65.072 663.931 61.84C662.779 58.608 662.203 54.896 662.203 50.704C662.203 47.312 662.715 44.144 663.739 41.2C664.795 38.256 666.299 35.712 668.251 33.568C670.203 31.392 672.587 29.696 675.403 28.48C678.219 27.232 681.387 26.608 684.907 26.608C687.819 26.608 690.507 27.104 692.971 28.096C695.467 29.056 697.611 30.464 699.403 32.32C701.227 34.144 702.651 36.416 703.675 39.136C704.699 41.824 705.211 44.896 705.211 48.352C705.211 49.696 705.067 50.592 704.779 51.04C704.491 51.488 703.947 51.712 703.147 51.712H670.651C670.747 54.784 671.163 57.456 671.899 59.728C672.667 62 673.723 63.904 675.067 65.44C676.411 66.944 678.011 68.08 679.867 68.848C681.723 69.584 683.803 69.952 686.107 69.952C688.251 69.952 690.091 69.712 691.627 69.232C693.195 68.72 694.539 68.176 695.659 67.6C696.779 67.024 697.707 66.496 698.443 66.016C699.211 65.504 699.867 65.248 700.411 65.248C701.115 65.248 701.659 65.52 702.043 66.064L704.443 69.184ZM723.818 37.12C725.354 33.792 727.242 31.2 729.482 29.344C731.722 27.456 734.458 26.512 737.69 26.512C738.714 26.512 739.69 26.624 740.618 26.848C741.578 27.072 742.426 27.424 743.162 27.904L742.538 34.288C742.346 35.088 741.866 35.488 741.098 35.488C740.65 35.488 739.994 35.392 739.13 35.2C738.266 35.008 737.29 34.912 736.202 34.912C734.666 34.912 733.29 35.136 732.074 35.584C730.89 36.032 729.818 36.704 728.858 37.6C727.93 38.464 727.082 39.552 726.314 40.864C725.578 42.144 724.906 43.616 724.298 45.28V76H715.706V27.376H720.602C721.53 27.376 722.17 27.552 722.522 27.904C722.874 28.256 723.114 28.864 723.242 29.728L723.818 37.12Z" fill="black"/>
<path d="M118.729 26.5918C105.504 31.8991 82.0764 51.9909 63.1832 56.1609C44.29 60.3309 42.7785 74.3572 111.55 75.4945C180.321 76.6318 310.685 75.4945 310.685 75.4945C310.685 75.4945 326.933 72.0827 323.532 64.8799C320.131 57.6772 288.907 48.9581 268.742 37.9645C243.037 23.9507 227.786 -3.79869 198.837 0.434523C178.093 3.4678 169.363 26.5918 155.76 26.5918C142.157 26.5918 131.955 21.2846 118.729 26.5918Z" fill="url(#paint0_linear)"/>
<defs>
<linearGradient id="paint0_linear" x1="188" y1="0" x2="188" y2="76" gradientUnits="userSpaceOnUse">
<stop stop-color="#50C582"/>
<stop offset="1" stop-color="#4EB297"/>
</linearGradient>
</defs>
</svg>
